<svg width="180" height="55" viewBox="0 0 180 55" fill="none" xmlns="http://www.w3.org/2000/svg">
<rect width="180" height="54.0665" rx="27.0332" fill="black"/>
<path d="M48.264 25.7124C48.2368 22.6895 50.7398 21.2189 50.8543 21.1504C49.4367 19.0842 47.2395 18.8019 46.4674 18.7794C44.6221 18.5852 42.8321 19.8833 41.892 19.8833C40.9332 19.8833 39.4857 18.7981 37.9255 18.83C35.9178 18.861 34.0396 20.023 33.0095 21.8276C30.8837 25.507 32.4692 30.9141 34.5059 33.8882C35.5248 35.3457 36.7153 36.9711 38.2736 36.9139C39.7981 36.852 40.3675 35.9431 42.2073 35.9431C44.0301 35.9431 44.5649 36.9139 46.1541 36.8773C47.7902 36.852 48.8203 35.4141 49.8035 33.9444C50.9809 32.2759 51.4538 30.6308 51.4725 30.5464C51.435 30.5333 48.2959 29.3346 48.264 25.7124V25.7124ZM45.2619 16.8229C46.0819 15.7978 46.6429 14.4031 46.4871 12.9878C45.3004 13.0403 43.8162 13.8085 42.9615 14.8111C42.2054 15.6946 41.5299 17.1427 41.7044 18.5046C43.0375 18.604 44.4063 17.8321 45.2619 16.8229V16.8229Z" fill="white"/>
<path d="M74.0832 37.9197H71.6323L70.2898 33.7023H65.6234L64.3445 37.9197H61.9584L66.5828 23.5617H69.4383L74.0832 37.9197V37.9197ZM69.8851 31.9329L68.671 28.1837C68.5426 27.8007 68.3009 26.8987 67.9469 25.4789H67.9037C67.7613 26.0895 67.5335 26.9915 67.2217 28.1837L66.0281 31.9329H69.8851ZM85.9521 32.6158C85.9521 34.3766 85.4741 35.7684 84.5168 36.7901C83.6599 37.6997 82.5948 38.1539 81.3246 38.1539C79.9529 38.1539 78.9665 37.6651 78.3676 36.6855V42.1178H76.0667V30.9694C76.0667 29.8636 76.0376 28.7296 75.9815 27.5666H78.005L78.1334 29.2076H78.1766C78.9439 27.9712 80.1083 27.3529 81.671 27.3529C82.8926 27.3529 83.9125 27.8352 84.7283 28.8008C85.5431 29.7686 85.9521 31.0396 85.9521 32.6158ZM83.6081 32.7C83.6081 31.6923 83.3815 30.8615 82.9261 30.2066C82.4286 29.5259 81.7606 29.1849 80.9231 29.1849C80.3554 29.1849 79.8396 29.3748 79.3788 29.7492C78.9169 30.1268 78.6147 30.6199 78.4733 31.2305C78.4102 31.4589 78.3744 31.6939 78.3665 31.9307V33.6581C78.3665 34.4101 78.5974 35.0455 79.0593 35.5656C79.5212 36.0835 80.1213 36.3435 80.8594 36.3435C81.726 36.3435 82.4005 36.0079 82.8829 35.3422C83.3664 34.6744 83.6081 33.794 83.6081 32.7V32.7ZM97.8632 32.6158C97.8632 34.3766 97.3851 35.7684 96.4279 36.7901C95.5699 37.6997 94.5058 38.1539 93.2345 38.1539C91.8629 38.1539 90.8765 37.6651 90.2776 36.6855V42.1178H87.9767V30.9694C87.9767 29.8636 87.9476 28.7296 87.8915 27.5666H89.9149L90.0434 29.2076H90.0865C90.8528 27.9712 92.0172 27.3529 93.581 27.3529C94.8015 27.3529 95.8214 27.8352 96.6394 28.8008C97.4531 29.7686 97.8632 31.0396 97.8632 32.6158V32.6158ZM95.5181 32.7C95.5181 31.6923 95.2904 30.8615 94.835 30.2066C94.3375 29.5259 93.6716 29.1849 92.8342 29.1849C92.2665 29.1849 91.7507 29.3748 91.2877 29.7492C90.8258 30.1268 90.5247 30.6199 90.3833 31.2305C90.3132 31.5154 90.2754 31.7473 90.2754 31.9307V33.6581C90.2754 34.4101 90.5074 35.0455 90.9672 35.5656C91.4291 36.0824 92.0291 36.3435 92.7694 36.3435C93.6371 36.3435 94.3116 36.0079 94.7929 35.3422C95.2764 34.6744 95.5181 33.794 95.5181 32.7V32.7ZM111.18 33.8922C111.18 35.1146 110.753 36.1083 109.904 36.8754C108.969 37.7126 107.664 38.1323 105.992 38.1323C104.446 38.1323 103.207 37.8345 102.273 37.2379L102.805 35.3207C103.814 35.9184 104.922 36.2162 106.129 36.2162C106.996 36.2162 107.671 36.0198 108.152 35.6303C108.635 35.2397 108.879 34.7176 108.879 34.0659C108.879 33.4822 108.677 32.9935 108.281 32.5953C107.882 32.1983 107.224 31.8282 106.299 31.4884C103.785 30.5508 102.526 29.1795 102.526 27.3756C102.526 26.1974 102.971 25.2329 103.858 24.4787C104.745 23.7257 105.922 23.3491 107.385 23.3491C108.692 23.3491 109.781 23.5768 110.645 24.031L110.068 25.9061C109.254 25.4659 108.336 25.2458 107.308 25.2458C106.497 25.2458 105.86 25.4454 105.405 25.8425C105.022 26.1974 104.827 26.6301 104.827 27.1436C104.827 27.7101 105.048 28.1805 105.489 28.5494C105.871 28.8893 106.568 29.2594 107.576 29.6564C108.813 30.1549 109.721 30.7353 110.303 31.4021C110.889 32.0688 111.18 32.9007 111.18 33.8922ZM118.807 29.2928H116.271V34.3194C116.271 35.5979 116.718 36.2356 117.614 36.2356C118.025 36.2356 118.366 36.2011 118.636 36.1288L118.699 37.8755C118.246 38.0449 117.649 38.1301 116.91 38.1301C116.001 38.1301 115.291 37.8529 114.778 37.2983C114.268 36.7437 114.011 35.8148 114.011 34.5072V29.2885H112.5V27.5622H114.011V25.6666L116.271 24.9847V27.5622H118.807V29.2928V29.2928ZM130.227 32.6579C130.227 34.2493 129.772 35.5559 128.863 36.5776C127.912 37.6295 126.647 38.1539 125.071 38.1539C123.549 38.1539 122.339 37.65 121.437 36.6434C120.535 35.6346 120.084 34.3637 120.084 32.8305C120.084 31.2262 120.55 29.9121 121.479 28.8904C122.411 27.8676 123.665 27.3562 125.241 27.3562C126.761 27.3562 127.981 27.8611 128.905 28.8688C129.788 29.8463 130.227 31.1086 130.227 32.6579ZM127.842 32.7108C127.842 31.7624 127.637 30.9489 127.226 30.2681C126.744 29.446 126.053 29.035 125.158 29.035C124.237 29.035 123.53 29.446 123.048 30.2681C122.636 30.9489 122.431 31.7765 122.431 32.7539C122.431 33.7034 122.636 34.519 123.048 35.1977C123.546 36.0198 124.24 36.4309 125.139 36.4309C126.018 36.4309 126.708 36.0112 127.206 35.1772C127.63 34.4802 127.842 33.6613 127.842 32.7108ZM137.709 29.5895C137.47 29.5463 137.227 29.525 136.984 29.5259C136.175 29.5259 135.549 29.8301 135.108 30.4429C134.726 30.9824 134.534 31.6643 134.534 32.4875V37.9197H132.233V30.827C132.235 29.7402 132.213 28.6535 132.166 27.5676H134.171L134.255 29.5485H134.318C134.562 28.8677 134.944 28.3186 135.469 27.9075C135.949 27.5483 136.532 27.3538 137.132 27.3529C137.344 27.3529 137.537 27.368 137.707 27.395L137.709 29.5895V29.5895ZM147.999 32.2533C148.005 32.603 147.977 32.9524 147.915 33.2966H141.013C141.039 34.3194 141.373 35.1027 142.014 35.6422C142.596 36.1234 143.348 36.365 144.272 36.365C145.294 36.365 146.226 36.2032 147.065 35.8763L147.425 37.472C146.445 37.8992 145.288 38.1118 143.953 38.1118C142.348 38.1118 141.087 37.6392 140.17 36.6963C139.255 35.7522 138.796 34.4834 138.796 32.8942C138.796 31.3341 139.222 30.034 140.076 28.9972C140.969 27.8902 142.177 27.3368 143.697 27.3368C145.189 27.3368 146.319 27.8902 147.086 28.9972C147.694 29.8743 147.999 30.9619 147.999 32.2533V32.2533ZM145.805 31.6567C145.821 30.9737 145.67 30.3857 145.359 29.8884C144.96 29.2475 144.347 28.9281 143.526 28.9281C142.774 28.9281 142.161 29.2399 141.695 29.8657C141.312 30.3631 141.084 30.9608 141.014 31.6545L145.805 31.6567Z" fill="white"/>
<path d="M64.9596 18.4855C64.3197 18.4855 63.7661 18.4542 63.3052 18.4013V11.4596C63.9497 11.3601 64.601 11.311 65.2532 11.3129C67.8918 11.3129 69.107 12.6108 69.107 14.7265C69.107 17.167 67.6717 18.4855 64.9596 18.4855ZM65.346 12.203C64.9899 12.203 64.6866 12.2246 64.4351 12.2763V17.5533C64.5711 17.5749 64.8323 17.5846 65.1992 17.5846C66.9281 17.5846 67.9123 16.6006 67.9123 14.7578C67.9123 13.1147 67.022 12.203 65.346 12.203V12.203ZM72.8939 18.5383C71.4067 18.5383 70.443 17.4281 70.443 15.9209C70.443 14.35 71.4272 13.2301 72.978 13.2301C74.4436 13.2301 75.4289 14.2874 75.4289 15.8378C75.4289 17.4281 74.4134 18.5383 72.8939 18.5383ZM72.937 14.0565C72.1201 14.0565 71.5967 14.8204 71.5967 15.8885C71.5967 16.9361 72.1309 17.7 72.9262 17.7C73.7216 17.7 74.2558 16.8833 74.2558 15.8669C74.2558 14.8312 73.7324 14.0565 72.937 14.0565ZM83.9092 13.3348L82.3174 18.4229H81.2803L80.6209 16.2133C80.4569 15.6728 80.3204 15.1244 80.2119 14.5701H80.1903C80.1072 15.1247 79.9496 15.6803 79.7824 16.2133L79.0809 18.4229H78.033L76.5351 13.3348H77.6974L78.2737 15.7537C78.4096 16.3298 78.524 16.8736 78.619 17.3871H78.6406C78.7237 16.9588 78.8597 16.4237 79.0593 15.7644L79.7824 13.3358H80.704L81.3958 15.7127C81.563 16.2888 81.699 16.8541 81.8048 17.3882H81.835C81.9084 16.8649 82.0238 16.3093 82.1803 15.7127L82.7987 13.3358L83.9092 13.3348V13.3348ZM89.7692 18.4229H88.6382V15.5012C88.6382 14.6014 88.2929 14.1504 87.6119 14.1504C86.9417 14.1504 86.4809 14.7265 86.4809 15.3965V18.4229H85.3499V14.7891C85.3499 14.3392 85.3391 13.8569 85.3078 13.3337H86.3028L86.3557 14.1191H86.387C86.6914 13.5753 87.3087 13.2301 88.0004 13.2301C89.0688 13.2301 89.7703 14.0468 89.7703 15.376L89.7692 18.4229V18.4229ZM92.8881 18.4229H91.756V11H92.8881V18.4229ZM97.0117 18.5383C95.5256 18.5383 94.5608 17.4281 94.5608 15.9209C94.5608 14.35 95.5451 13.2301 97.0948 13.2301C98.5614 13.2301 99.5456 14.2874 99.5456 15.8378C99.5467 17.4281 98.5301 18.5383 97.0117 18.5383ZM97.0538 14.0565C96.2368 14.0565 95.7134 14.8204 95.7134 15.8885C95.7134 16.9361 96.2487 17.7 97.0419 17.7C97.8384 17.7 98.3715 16.8833 98.3715 15.8669C98.3725 14.8312 97.8502 14.0565 97.0538 14.0565V14.0565ZM104.005 18.4229L103.923 17.837H103.893C103.547 18.3085 103.043 18.5383 102.404 18.5383C101.492 18.5383 100.845 17.8996 100.845 17.0408C100.845 15.7849 101.934 15.1354 103.819 15.1354V15.0416C103.819 14.3716 103.464 14.036 102.763 14.036C102.261 14.036 101.821 14.1623 101.433 14.4137L101.203 13.6703C101.674 13.3768 102.261 13.2301 102.95 13.2301C104.28 13.2301 104.951 13.9314 104.951 15.335V17.2091C104.951 17.7227 104.974 18.1208 105.025 18.424L104.005 18.4229V18.4229ZM103.849 15.8885C102.593 15.8885 101.963 16.1928 101.963 16.9146C101.963 17.4486 102.288 17.7097 102.739 17.7097C103.314 17.7097 103.849 17.2706 103.849 16.674V15.8885V15.8885ZM110.443 18.4229L110.39 17.6061H110.359C110.034 18.2233 109.488 18.5383 108.725 18.5383C107.498 18.5383 106.59 17.4594 106.59 15.9414C106.59 14.35 107.532 13.229 108.818 13.229C109.499 13.229 109.981 13.4588 110.253 13.9206H110.276V11H111.408V17.0516C111.408 17.5436 111.42 18.0043 111.45 18.4229H110.443ZM110.276 15.4289C110.276 14.7168 109.804 14.1094 109.085 14.1094C108.246 14.1094 107.733 14.8528 107.733 15.8993C107.733 16.9254 108.266 17.6277 109.062 17.6277C109.773 17.6277 110.276 17.0095 110.276 16.2769V15.4289ZM118.586 18.5383C117.1 18.5383 116.136 17.4281 116.136 15.9209C116.136 14.35 117.12 13.2301 118.67 13.2301C120.137 13.2301 121.121 14.2874 121.121 15.8378C121.122 17.4281 120.106 18.5383 118.586 18.5383ZM118.628 14.0565C117.812 14.0565 117.289 14.8204 117.289 15.8885C117.289 16.9361 117.823 17.7 118.617 17.7C119.414 17.7 119.947 16.8833 119.947 15.8669C119.949 14.8312 119.425 14.0565 118.628 14.0565ZM127.203 18.4229H126.071V15.5012C126.071 14.6014 125.726 14.1504 125.045 14.1504C124.375 14.1504 123.915 14.7265 123.915 15.3965V18.4229H122.783V14.7891C122.783 14.3392 122.772 13.8569 122.741 13.3337H123.736L123.789 14.1191H123.82C124.123 13.5753 124.742 13.229 125.432 13.229C126.501 13.229 127.203 14.0458 127.203 15.375V18.4229ZM134.813 14.1828H133.568V16.6535C133.568 17.2825 133.786 17.5964 134.227 17.5964C134.426 17.5964 134.594 17.5749 134.728 17.5436L134.76 18.4024C134.541 18.4865 134.247 18.5286 133.882 18.5286C132.991 18.5286 132.458 18.0366 132.458 16.7484V14.1828H131.715V13.3348H132.458V12.4026L133.568 12.067V13.3337H134.813V14.1828V14.1828ZM140.8 18.4229H139.67V15.5228C139.67 14.6122 139.326 14.1515 138.644 14.1515C138.058 14.1515 137.512 14.5496 137.512 15.3555V18.4229H136.382V11H137.512V14.0565H137.534C137.89 13.502 138.406 13.229 139.065 13.229C140.142 13.229 140.8 14.0663 140.8 15.3965V18.4229V18.4229ZM146.934 16.1507H143.54C143.562 17.1142 144.199 17.6579 145.144 17.6579C145.646 17.6579 146.107 17.5738 146.515 17.4173L146.691 18.2028C146.21 18.4121 145.643 18.5167 144.984 18.5167C143.392 18.5167 142.45 17.5112 142.45 15.9522C142.45 14.3921 143.415 13.2193 144.857 13.2193C146.157 13.2193 146.973 14.1828 146.973 15.6382C146.98 15.81 146.967 15.982 146.934 16.1507V16.1507ZM145.897 15.3448C145.897 14.5593 145.501 14.0048 144.778 14.0048C144.128 14.0048 143.615 14.5701 143.541 15.3448H145.897V15.3448Z" fill="white"/>
</svg>
