<svg width="180" height="55" viewBox="0 0 180 55" fill="none" xmlns="http://www.w3.org/2000/svg">
<rect width="180" height="54.0665" rx="27.0332" fill="black"/>
<path d="M65.6764 15.7257C65.6764 16.6233 65.411 17.338 64.8796 17.8711C64.2759 18.5051 63.4891 18.8223 62.5219 18.8223C61.5957 18.8223 60.8082 18.501 60.1606 17.8573C59.5118 17.2141 59.188 16.4166 59.188 15.465C59.188 14.513 59.5118 13.7159 60.1606 13.0722C60.8082 12.429 61.5957 12.1072 62.5219 12.1072C62.9815 12.1072 63.4215 12.1972 63.8393 12.3767C64.257 12.5567 64.5921 12.7956 64.8428 13.0948L64.2788 13.6601C63.8539 13.1517 63.269 12.8977 62.5219 12.8977C61.8464 12.8977 61.2623 13.1354 60.7694 13.6112C60.2763 14.0874 60.0299 14.7051 60.0299 15.465C60.0299 16.225 60.2763 16.8425 60.7694 17.3188C61.2623 17.7946 61.8464 18.0323 62.5219 18.0323C63.2385 18.0323 63.836 17.7933 64.3143 17.3146C64.6248 17.0028 64.8043 16.5693 64.8524 16.0127H62.5219V15.2407H65.6316C65.6616 15.4086 65.6763 15.5696 65.6763 15.7257" fill="white"/>
<path d="M65.6764 15.7257H65.5694C65.5685 16.6027 65.3128 17.284 64.8039 17.7954L64.8028 17.7962L64.8023 17.7971C64.2178 18.4092 63.4665 18.7139 62.5219 18.7152C61.6204 18.7139 60.8658 18.4059 60.2358 17.7815C59.6071 17.1559 59.2962 16.3922 59.295 15.4649C59.2962 14.5372 59.6071 13.7739 60.2358 13.1487C60.8658 12.524 61.6204 12.2155 62.5219 12.2142C62.9677 12.2142 63.3922 12.3014 63.797 12.475C64.2023 12.65 64.5224 12.8792 64.7609 13.1639L64.8428 13.0947L64.7672 13.019L64.2031 13.5847L64.2787 13.6601L64.3611 13.5915C63.9165 13.0579 63.2924 12.7889 62.5219 12.7905C61.8214 12.7896 61.2051 13.0404 60.6953 13.5342C60.1807 14.0296 59.9221 14.682 59.923 15.4649C59.9221 16.2479 60.1807 16.9002 60.6953 17.3957C61.2051 17.8895 61.8214 18.1402 62.5219 18.1394C63.2622 18.1407 63.8932 17.8891 64.3899 17.3903C64.7216 17.0571 64.9097 16.5957 64.959 16.0219L64.9689 15.9056H62.6289V15.3477H65.6316V15.2406L65.5263 15.2594C65.5555 15.4219 65.5694 15.5762 65.5694 15.7257H65.7833C65.7833 15.5629 65.7682 15.3955 65.7369 15.2215L65.721 15.1335H62.415V16.1198H64.8524V16.0127L64.7459 16.0035C64.6987 16.5425 64.5273 16.9484 64.2387 17.2389C63.7791 17.6975 63.2151 17.9238 62.5219 17.9251C61.8715 17.9242 61.3196 17.6999 60.8437 17.2417C60.3725 16.7852 60.1381 16.2023 60.1369 15.4649C60.1381 14.7276 60.3725 14.1447 60.8437 13.6881C61.3196 13.2299 61.8714 13.0056 62.5219 13.0047C63.2452 13.0065 63.7913 13.2458 64.197 13.7291L64.2722 13.8187L64.9185 13.1705L64.9878 13.1011L64.9247 13.0261C64.6619 12.7123 64.3118 12.4633 63.8815 12.2784C63.4503 12.0929 62.9954 12 62.5219 12C61.5711 11.9992 60.7506 12.3339 60.085 12.9964C59.417 13.6576 59.0803 14.4887 59.0812 15.4649C59.0803 16.4407 59.417 17.2723 60.0854 17.9339C60.7506 18.5959 61.5711 18.9303 62.5219 18.9294C63.5121 18.9303 64.3336 18.6009 64.9569 17.9451L64.8795 17.8711L64.9552 17.9469C65.5092 17.3924 65.784 16.6433 65.7833 15.7257H65.6763M70.6062 13.0408H67.6838V15.0788H70.3192V15.8511H67.6838V17.8891H70.6062V18.6787H66.8599V12.2511H70.6062V13.0408Z" fill="white"/>
<path d="M70.6062 13.041V12.9339H67.5769V15.1862H70.2123V15.744L67.5768 15.7443V17.9965H70.4992V18.5719H66.9669V12.3585H70.4992V13.041H70.6062V12.9339V13.041H70.7131V12.1443H66.753V18.7861H70.7131V17.7823H67.7907V15.9585H70.4262V14.9719H67.7907V13.1482H70.7131V13.041H70.6062ZM74.0835 18.6791H73.2584V13.041H71.466V12.2514H75.8758V13.041H74.0835V18.679" fill="white"/>
<path d="M74.0835 18.6791V18.5719H73.3653V12.9339H71.573V12.3586H75.7689V12.9339H73.9765V18.679H74.0835V18.5719V18.679H74.1905V13.1482H75.9828V12.1443H71.3591V13.1481H73.1514V18.7861H74.1905V18.679H74.0835M79.0665 18.6791V12.2514H79.8908V18.679H79.0665" fill="white"/>
<path d="M79.0665 18.6791H79.1734V12.3585H79.7838V18.5719H79.0665V18.679H79.1734H79.0665V18.7861H79.9977V12.1443H78.9595V18.7861H79.0665V18.679M83.5485 18.6791H82.7234V13.041H80.9311V12.2514H85.3408V13.041H83.5485V18.679" fill="white"/>
<path d="M83.5484 18.6788V18.5717H82.8302V12.9337H81.038V12.3584H85.2338V12.9337H83.4415V18.6788H83.5484V18.5717V18.6788H83.6554V13.1479H85.4477V12.1441H80.8241V13.1479H82.6163V18.7859H83.6554V18.6787H83.5484M89.5922 17.3101C90.0672 17.7917 90.6484 18.0322 91.3356 18.0322C92.0229 18.0322 92.6044 17.7917 93.0786 17.3101C93.5541 16.8284 93.7923 16.2127 93.7923 15.465C93.7923 14.7173 93.5541 14.1016 93.0786 13.62C92.6044 13.1383 92.0229 12.8977 91.3356 12.8977C90.6484 12.8977 90.0672 13.1383 89.5922 13.62C89.118 14.1016 88.8799 14.7172 88.8799 15.465C88.8799 16.2127 89.118 16.8284 89.5922 17.3101ZM93.6886 17.8481C93.0577 18.4979 92.2731 18.8223 91.3356 18.8223C90.3972 18.8223 89.613 18.4979 88.9835 17.8481C88.3522 17.199 88.038 16.4045 88.038 15.465C88.038 14.5255 88.3522 13.7308 88.9835 13.0818C89.613 12.4319 90.3972 12.1072 91.3356 12.1072C92.2682 12.1072 93.0506 12.4336 93.6845 13.086C94.3174 13.7384 94.6341 14.5313 94.6341 15.465C94.6341 16.4045 94.3182 17.199 93.6886 17.8481Z" fill="white"/>
<path d="M89.5923 17.31L89.5162 17.3853C90.0088 17.8862 90.6234 18.1407 91.3357 18.1394C92.0476 18.1407 92.663 17.8862 93.1548 17.3853C93.6506 16.8839 93.9 16.2353 93.8993 15.4649C93.9 14.6946 93.6506 14.0459 93.1548 13.5446C92.663 13.0436 92.0476 12.7892 91.3357 12.7905C90.6234 12.7892 90.0088 13.0436 89.5162 13.5446C89.0216 14.0459 88.7717 14.6946 88.773 15.4649C88.7717 16.2353 89.0216 16.8839 89.5162 17.3853L89.5923 17.31L89.6683 17.2347C89.2146 16.7722 88.9878 16.1905 88.9869 15.4649C88.9878 14.7394 89.2146 14.1577 89.6683 13.6952C90.1262 13.2329 90.673 13.006 91.3357 13.0048C91.9979 13.006 92.546 13.2329 93.0027 13.6952C93.4572 14.1577 93.6841 14.7394 93.6849 15.4649C93.6841 16.1905 93.4572 16.7722 93.0027 17.2347C92.546 17.697 91.9979 17.9238 91.3357 17.9251C90.673 17.9238 90.1262 17.697 89.6683 17.2347L89.5923 17.31ZM93.6887 17.8481L93.6122 17.7736C92.9989 18.403 92.249 18.7139 91.3357 18.7152C90.422 18.7139 89.672 18.403 89.0599 17.7736L89.057 17.7703L89.0599 17.7736C88.4479 17.1421 88.1459 16.3806 88.1451 15.4649C88.1459 14.5493 88.4479 13.7877 89.0599 13.1563C89.672 12.5269 90.422 12.2155 91.3357 12.2143C92.2431 12.2155 92.9913 12.5282 93.608 13.1608C94.2222 13.7952 94.5259 14.5556 94.5272 15.4649C94.5259 16.3806 94.223 17.1421 93.6122 17.7736L93.6887 17.8481L93.7656 17.9225C94.4139 17.2556 94.7419 16.4282 94.7411 15.4649C94.7419 14.5071 94.4127 13.6815 93.7613 13.0115C93.1096 12.3389 92.2933 11.9988 91.3357 12C90.3731 11.9988 89.5543 12.3374 88.9067 13.0073V13.0069C88.257 13.6743 87.9303 14.5016 87.9312 15.4649C87.9303 16.4282 88.257 17.2556 88.9067 17.9229L88.9096 17.926L88.9067 17.9225C89.5543 18.5925 90.3731 18.9303 91.3357 18.9294C92.2978 18.9303 93.1167 18.5925 93.7656 17.9225L93.6887 17.8481ZM95.7914 18.6788V12.2511H96.795L99.9137 17.2513H99.9493L99.9137 16.0126V12.2511H100.739V18.6787H99.8782L96.6153 13.4361H96.5798L96.6153 14.6752V18.6787H95.7914" fill="white"/>
<path d="M95.7913 18.6791H95.8983V12.3585H96.7355L99.8543 17.3588H100.059L100.021 16.0114V12.3586H100.632V18.5719H99.9375L96.6746 13.3293H96.4699L96.5083 14.6773V18.5719H95.7914V18.679H95.8983H95.7914V18.7861H96.7222V14.6739L96.6867 13.4336L96.5797 13.4365V13.5436H96.6152V13.4365L96.5245 13.4934L99.8188 18.7861H100.846V12.1443H99.8067V16.0142L99.8422 17.2545L99.9492 17.2516V17.1445H99.9137V17.2516L100.004 17.1948L96.8541 12.1443H95.6844V18.7861H95.7914V18.679M129.333 36.8906H131.329V23.4985H129.333L129.333 36.8906ZM147.309 28.3226L145.021 34.1288H144.952L142.578 28.3226H140.428L143.989 36.4378L141.959 40.9518H144.041L149.528 28.3226L147.309 28.3226ZM135.991 35.3695C135.336 35.3695 134.425 35.0422 134.425 34.2321C134.425 33.1984 135.561 32.8022 136.54 32.8022C137.419 32.8022 137.83 32.9917 138.364 33.2504C138.209 34.4907 137.143 35.3695 135.991 35.3695ZM136.231 28.0296C134.786 28.0296 133.29 28.6673 132.671 30.0801L134.442 30.8208C134.821 30.0801 135.525 29.8386 136.266 29.8386C137.298 29.8386 138.347 30.4592 138.364 31.5619V31.6996C138.002 31.4928 137.229 31.1827 136.283 31.1827C134.374 31.1827 132.429 32.2335 132.429 34.1978C132.429 35.9897 133.995 37.1442 135.749 37.1442C137.091 37.1442 137.83 36.5411 138.296 35.8348H138.364V36.8684H140.29V31.7338C140.29 29.3566 138.519 28.0296 136.231 28.0296ZM123.897 29.9528H121.059V25.3624H123.897C125.389 25.3624 126.236 26.5997 126.236 27.6575C126.236 28.6954 125.389 29.9528 123.897 29.9528ZM123.846 23.4985H119.064V36.8906H121.059V31.8167H123.846C126.058 31.8167 128.232 30.2127 128.232 27.6575C128.232 25.1025 126.058 23.4985 123.846 23.4985ZM97.7696 35.372C96.3908 35.372 95.2365 34.2158 95.2365 32.6277C95.2365 31.023 96.3908 29.8491 97.7696 29.8491C99.1308 29.8491 100.199 31.0229 100.199 32.6277C100.199 34.2158 99.1308 35.372 97.7696 35.372H97.7696ZM100.061 29.0725H99.9922C99.5444 28.5376 98.6824 28.0544 97.5971 28.0544C95.3226 28.0544 93.2378 30.0562 93.2378 32.6277C93.2378 35.182 95.3225 37.1668 97.5971 37.1668C98.6824 37.1668 99.5444 36.6834 99.9922 36.1315H100.061V36.7872C100.061 38.5306 99.1308 39.4625 97.6317 39.4625C96.4084 39.4625 95.6502 38.582 95.3397 37.84L93.5997 38.5649C94.0993 39.7729 95.4262 41.2573 97.6317 41.2573C99.9751 41.2573 101.957 39.8763 101.957 36.511V28.3305H100.061V29.0725ZM103.335 36.8906H105.334V23.498H103.335V36.8906ZM108.28 32.4725C108.228 30.7119 109.641 29.8147 110.658 29.8147C111.451 29.8147 112.123 30.2115 112.346 30.7815L108.28 32.4725ZM114.483 30.9538C114.105 29.9352 112.95 28.0544 110.589 28.0544C108.246 28.0544 106.299 29.901 106.299 32.6105C106.299 35.1649 108.228 37.1668 110.813 37.1668C112.898 37.1668 114.105 35.8896 114.604 35.1476L113.053 34.1119C112.537 34.8715 111.83 35.372 110.813 35.372C109.796 35.372 109.073 34.9058 108.607 33.9914L114.69 31.4715L114.483 30.9538ZM66.0243 29.4524V31.3852H70.6421C70.5042 32.4725 70.1424 33.2663 69.5909 33.8186C68.9191 34.4919 67.868 35.2339 66.0243 35.2339C63.1812 35.2339 60.9586 32.9386 60.9586 30.0909C60.9586 27.2433 63.1812 24.9477 66.0243 24.9477C67.558 24.9477 68.6776 25.5519 69.5048 26.3285L70.866 24.9652C69.7117 23.8604 68.178 23.0148 66.0243 23.0148C62.1301 23.0148 58.8563 26.1905 58.8563 30.0909C58.8563 33.9914 62.1301 37.1668 66.0243 37.1668C68.1266 37.1668 69.7117 36.4768 70.9521 35.182C72.2273 33.9048 72.6237 32.1101 72.6237 30.6605C72.6237 30.2115 72.5894 29.7976 72.5201 29.4524H66.0243ZM77.8737 35.372C76.4949 35.372 75.3059 34.2329 75.3059 32.6105C75.3059 30.971 76.4949 29.8491 77.8737 29.8491C79.2519 29.8491 80.4409 30.971 80.4409 32.6105C80.4409 34.2329 79.2519 35.372 77.8737 35.372ZM77.8737 28.0544C75.3577 28.0544 73.3072 29.97 73.3072 32.6105C73.3072 35.2339 75.3577 37.1668 77.8737 37.1668C80.3891 37.1668 82.4396 35.2339 82.4396 32.6105C82.4396 29.97 80.3891 28.0544 77.8737 28.0544ZM87.8345 35.372C86.4563 35.372 85.2672 34.2329 85.2672 32.6105C85.2672 30.971 86.4563 29.8491 87.8345 29.8491C89.2128 29.8491 90.4018 30.971 90.4018 32.6105C90.4018 34.2329 89.2128 35.372 87.8345 35.372H87.8345ZM87.8345 28.0544C85.3186 28.0544 83.2685 29.97 83.2685 32.6105C83.2685 35.2339 85.3186 37.1668 87.8345 37.1668C90.3501 37.1668 92.4006 35.2339 92.4006 32.6105C92.4006 29.97 90.3501 28.0544 87.8345 28.0544H87.8345Z" fill="white"/>
<path d="M30.5011 14.9806C30.1873 15.2641 30 15.7372 30 16.365V16.2231V36.9421V36.8057C30 37.3855 30.1607 37.8333 30.4328 38.1217L30.5022 38.1883V38.1886C30.7225 38.3876 31.0049 38.4933 31.3285 38.493C31.6448 38.493 32.0006 38.392 32.3761 38.1788L45.9494 30.4542L50.6117 27.8005C51.2039 27.4636 51.5363 27.029 51.5918 26.5862V26.5844C51.5363 26.1407 51.2039 25.7063 50.6118 25.3694L45.949 22.7161L32.3762 14.9915C31.9998 14.7779 31.6438 14.6765 31.3267 14.6765C31.0034 14.6765 30.7214 14.7819 30.5012 14.9806H30.5011Z" fill="#00C1FF"/>
<path d="M30.5023 38.188L30.4328 38.1214C30.1607 37.8331 30 37.3852 30 36.8054V36.9418V16.2279V16.3647C30 15.7369 30.1873 15.2639 30.5011 14.9803L42.0869 26.5845L30.5023 38.188Z" fill="url(#paint0_linear_1949_135672)"/>
<path d="M45.9494 30.4541L42.087 26.5847L45.9491 22.716L50.6118 25.3693C51.2039 25.7063 51.5363 26.1406 51.5919 26.5844V26.5861C51.5363 27.0289 51.2039 27.4636 50.6118 27.8005L45.9495 30.4541" fill="url(#paint1_linear_1949_135672)"/>
<path d="M31.3285 38.4929C31.0049 38.4932 30.7225 38.3875 30.5023 38.1885V38.1882L42.0869 26.5847L45.9494 30.454L32.3761 38.1786C32.0006 38.3919 31.6447 38.4929 31.3285 38.4929Z" fill="url(#paint2_linear_1949_135672)"/>
<path d="M42.087 26.5847L30.5011 14.9805C30.7213 14.7818 31.0034 14.6764 31.3266 14.6764C31.6437 14.6764 31.9998 14.7778 32.3761 14.9914L45.949 22.716L42.0869 26.5847" fill="url(#paint3_linear_1949_135672)"/>
<path d="M31.3289 38.6301C31.0053 38.6301 30.7225 38.5244 30.5023 38.3254L30.5019 38.3257C30.501 38.3248 30.5 38.3239 30.499 38.3232L30.4388 38.2642C30.4369 38.2624 30.4351 38.2602 30.4329 38.2581L30.5023 38.1885C30.7226 38.3875 31.0049 38.4933 31.3286 38.4929C31.6448 38.4929 32.0007 38.392 32.3762 38.1787L45.9495 30.4541L46.0364 30.5412L45.9484 30.5913L32.3761 38.3155C32.0339 38.5098 31.7084 38.6111 31.4144 38.628C31.3859 38.6294 31.3574 38.6301 31.3289 38.6301" fill="url(#paint4_linear_1949_135672)"/>
<path d="M30.4328 38.2581C30.1607 37.9697 30 37.5223 30 36.942V36.8056C30 37.3854 30.1607 37.8332 30.4328 38.1216L30.5022 38.1882L30.4328 38.2581Z" fill="url(#paint5_linear_1949_135672)"/>
<path d="M46.0364 30.541L45.9495 30.4538L50.6118 27.8002C51.2039 27.4634 51.5363 27.0287 51.5919 26.5859C51.5919 26.7484 51.5557 26.9108 51.4838 27.0689C51.3388 27.3876 51.0481 27.6887 50.6118 27.9371L46.0364 30.541" fill="url(#paint6_linear_1949_135672)"/>
<path d="M51.5919 26.5842C51.5363 26.1404 51.2039 25.7061 50.6118 25.3691L45.949 22.7159L46.036 22.6287H46.0364L50.6118 25.2327C51.2646 25.6044 51.5915 26.0943 51.5919 26.5842Z" fill="url(#paint7_linear_1949_135672)"/>
<path d="M30 16.365V16.2219C30 16.1703 30.0014 16.1198 30.004 16.0708V16.0686C30.004 16.0679 30.004 16.0672 30.0043 16.0664V16.0609C30.0325 15.5615 30.1873 15.1719 30.4328 14.9117L30.5011 14.9805C30.1873 15.2641 30 15.7371 30 16.365Z" fill="url(#paint8_linear_1949_135672)"/>
<path d="M45.949 22.7161L32.3761 14.9914C31.9998 14.7778 31.6438 14.6765 31.3267 14.6765C31.0034 14.6765 30.7214 14.7818 30.5012 14.9805L30.4328 14.9117C30.4541 14.8891 30.4763 14.8673 30.4993 14.8463C30.5 14.8455 30.5012 14.8448 30.5019 14.844C30.7203 14.6469 30.9994 14.5415 31.3198 14.5396H31.3267C31.6438 14.5396 31.9998 14.641 32.3761 14.8547L46.0364 22.6286L46.036 22.6289L45.949 22.7161Z" fill="url(#paint9_linear_1949_135672)"/>
<defs>
<linearGradient id="paint0_linear_1949_135672" x1="37.404" y1="16.009" x2="27.4197" y2="26.0094" gradientUnits="userSpaceOnUse">
<stop stop-color="#00A0FF"/>
<stop offset="0.00657" stop-color="#00A1FF"/>
<stop offset="0.2601" stop-color="#00BEFF"/>
<stop offset="0.5122" stop-color="#00D2FF"/>
<stop offset="0.7604" stop-color="#00DFFF"/>
<stop offset="1" stop-color="#00E3FF"/>
</linearGradient>
<linearGradient id="paint1_linear_1949_135672" x1="52.3133" y1="26.5179" x2="29.6865" y2="26.5179" gradientUnits="userSpaceOnUse">
<stop stop-color="#FFE000"/>
<stop offset="0.4087" stop-color="#FFBD00"/>
<stop offset="0.7754" stop-color="#FFA500"/>
<stop offset="1" stop-color="#FF9C00"/>
</linearGradient>
<linearGradient id="paint2_linear_1949_135672" x1="43.8988" y1="30.2635" x2="26.9795" y2="47.0863" gradientUnits="userSpaceOnUse">
<stop stop-color="#FF3A44"/>
<stop offset="1" stop-color="#C31162"/>
</linearGradient>
<linearGradient id="paint3_linear_1949_135672" x1="27.5151" y1="13.2601" x2="35.0556" y2="20.7692" gradientUnits="userSpaceOnUse">
<stop stop-color="#32A071"/>
<stop offset="0.0685" stop-color="#2DA771"/>
<stop offset="0.4762" stop-color="#15CF74"/>
<stop offset="0.8009" stop-color="#06E775"/>
<stop offset="1" stop-color="#00F076"/>
</linearGradient>
<linearGradient id="paint4_linear_1949_135672" x1="43.8904" y1="32.9476" x2="30.3406" y2="46.5193" gradientUnits="userSpaceOnUse">
<stop stop-color="#CC2E36"/>
<stop offset="1" stop-color="#9C0E4E"/>
</linearGradient>
<linearGradient id="paint5_linear_1949_135672" x1="31.5434" y1="16.0092" x2="22.7473" y2="24.8196" gradientUnits="userSpaceOnUse">
<stop stop-color="#008DE0"/>
<stop offset="0.00657" stop-color="#008DE0"/>
<stop offset="0.2601" stop-color="#00A7E0"/>
<stop offset="0.5122" stop-color="#00B8E0"/>
<stop offset="0.7604" stop-color="#00C4E0"/>
<stop offset="1" stop-color="#00C7E0"/>
</linearGradient>
<linearGradient id="paint6_linear_1949_135672" x1="52.3134" y1="26.5851" x2="29.6865" y2="26.5851" gradientUnits="userSpaceOnUse">
<stop stop-color="#E0C500"/>
<stop offset="0.4087" stop-color="#E0A600"/>
<stop offset="0.7754" stop-color="#E09100"/>
<stop offset="1" stop-color="#E08900"/>
</linearGradient>
<linearGradient id="paint7_linear_1949_135672" x1="52.3133" y1="26.5852" x2="29.6865" y2="26.5852" gradientUnits="userSpaceOnUse">
<stop stop-color="#FFE840"/>
<stop offset="0.4087" stop-color="#FFCE40"/>
<stop offset="0.7754" stop-color="#FFBC40"/>
<stop offset="1" stop-color="#FFB540"/>
</linearGradient>
<linearGradient id="paint8_linear_1949_135672" x1="31.5339" y1="16.0252" x2="23.0617" y2="24.1434" gradientUnits="userSpaceOnUse">
<stop stop-color="#40B8FF"/>
<stop offset="0.00657" stop-color="#40B9FF"/>
<stop offset="0.2601" stop-color="#40CEFF"/>
<stop offset="0.5122" stop-color="#40DDFF"/>
<stop offset="0.7604" stop-color="#40E7FF"/>
<stop offset="1" stop-color="#40EAFF"/>
</linearGradient>
<linearGradient id="paint9_linear_1949_135672" x1="27.4982" y1="15.7142" x2="33.5488" y2="21.7746" gradientUnits="userSpaceOnUse">
<stop stop-color="#65B895"/>
<stop offset="0.0685" stop-color="#62BD95"/>
<stop offset="0.4762" stop-color="#50DB97"/>
<stop offset="0.8009" stop-color="#44ED98"/>
<stop offset="1" stop-color="#40F498"/>
</linearGradient>
</defs>
</svg>
