<svg width="64" height="64" viewBox="0 0 64 64" fill="none" xmlns="http://www.w3.org/2000/svg">
<path d="M52 64H12C5.372 64 0 58.628 0 52V12C0 5.372 5.372 0 12 0H52C58.628 0 64 5.372 64 12V52C64 58.628 58.628 64 52 64Z" fill="#BAF7C7"/>
<path d="M45.916 24.7805L32.64 17.5385C32.242 17.3205 31.762 17.3205 31.362 17.5385L18.086 24.7805C16.798 25.4805 16 26.8265 16 28.2925V42.7085C16 44.9145 17.794 46.7085 20 46.7085H44C46.206 46.7085 48 44.9145 48 42.7085V28.2925C48 26.8265 47.202 25.4805 45.916 24.7805V24.7805ZM19.362 27.1225L32 20.2285L44.638 27.1225C45.066 27.3565 45.332 27.8045 45.332 28.2925V29.9585L32.78 36.5145C32.298 36.7645 31.7 36.7645 31.222 36.5165L18.666 29.9585V28.2925C18.666 27.8045 18.932 27.3565 19.362 27.1225V27.1225Z" fill="#289442"/>
</svg>
