<svg width="24" height="24" viewBox="0 0 24 24" fill="none" xmlns="http://www.w3.org/2000/svg">
<rect width="24" height="24" fill="white"/>
<path d="M7.875 18.375V8.625H21.375V21.375L16.7363 18.75H7.875V18.375Z" fill="#96B9F8"/>
<path d="M4.5 16.875V4.875H15.8137C16.1944 4.87599 16.5591 5.02763 16.8282 5.29676C17.0974 5.5659 17.249 5.93064 17.25 6.31125V13.5637C17.249 13.9444 17.0974 14.3091 16.8282 14.5782C16.5591 14.8474 16.1944 14.999 15.8137 15H6.75L4.5 16.875Z" fill="#C3D6FA"/>
<path d="M19.875 7.875H18V6.375C18 5.77826 17.7629 5.20597 17.341 4.78401C16.919 4.36205 16.3467 4.125 15.75 4.125H4.125C3.52826 4.125 2.95597 4.36205 2.53401 4.78401C2.11205 5.20597 1.875 5.77826 1.875 6.375V18.75C1.8749 18.8953 1.91702 19.0375 1.99625 19.1594C2.07547 19.2812 2.18838 19.3774 2.32125 19.4363C2.41727 19.4774 2.52052 19.4991 2.625 19.5C2.81217 19.5004 2.99274 19.4309 3.13125 19.305L6.75 16.0125V17.25C6.75 17.8467 6.98705 18.419 7.40901 18.841C7.83097 19.2629 8.40326 19.5 9 19.5H17.0325L20.9737 22.0087C21.0938 22.0847 21.2329 22.125 21.375 22.125C21.5062 22.1281 21.6357 22.0957 21.75 22.0312C21.865 21.9649 21.9603 21.8691 22.0262 21.7538C22.0921 21.6385 22.1262 21.5078 22.125 21.375V10.125C22.125 9.52826 21.8879 8.95597 21.466 8.53401C21.044 8.11205 20.4717 7.875 19.875 7.875V7.875ZM3.375 17.055V6.375C3.375 6.17609 3.45402 5.98532 3.59467 5.84467C3.73532 5.70402 3.92609 5.625 4.125 5.625H15.75C15.9489 5.625 16.1397 5.70402 16.2803 5.84467C16.421 5.98532 16.5 6.17609 16.5 6.375V13.5C16.5 13.6989 16.421 13.8897 16.2803 14.0303C16.1397 14.171 15.9489 14.25 15.75 14.25H6.75C6.56283 14.2496 6.38226 14.3191 6.24375 14.445L3.375 17.055ZM20.625 20.01L17.6512 18.135C17.5332 18.0524 17.3939 18.0055 17.25 18H9C8.80109 18 8.61032 17.921 8.46967 17.7803C8.32902 17.6397 8.25 17.4489 8.25 17.25V15.75H15.75C16.3467 15.75 16.919 15.5129 17.341 15.091C17.7629 14.669 18 14.0967 18 13.5V9.375H19.875C20.0739 9.375 20.2647 9.45402 20.4053 9.59467C20.546 9.73532 20.625 9.92609 20.625 10.125V20.01Z" fill="#2D68CB"/>
</svg>
