<svg width="24" height="24" viewBox="0 0 24 24" fill="none" xmlns="http://www.w3.org/2000/svg">
<g clip-path="url(#clip0_30967_5339)">
<path d="M22.0594 12.2222C22.0594 11.3999 21.9911 10.7999 21.8433 10.1777H12.2344V13.8888H17.8746C17.7609 14.8111 17.1469 16.1999 15.7823 17.1332L15.7631 17.2575L18.8013 19.5572L19.0118 19.5777C20.9449 17.8333 22.0594 15.2666 22.0594 12.2222Z" fill="#4285F4"/>
<path d="M12.2343 22.0001C14.9975 22.0001 17.3173 21.1112 19.0117 19.5779L15.7822 17.1334C14.918 17.7223 13.758 18.1334 12.2343 18.1334C9.52788 18.1334 7.23085 16.389 6.41202 13.9779L6.292 13.9879L3.13287 16.3768L3.09155 16.489C4.77452 19.7556 8.23147 22.0001 12.2343 22.0001Z" fill="#34A853"/>
<path d="M6.41211 13.9779C6.19605 13.3557 6.07101 12.6889 6.07101 12.0001C6.07101 11.3112 6.19605 10.6445 6.40074 10.0223L6.39502 9.88979L3.1963 7.46252L3.09164 7.51116C2.39801 8.86674 2 10.389 2 12.0001C2 13.6112 2.39801 15.1334 3.09164 16.4889L6.41211 13.9779Z" fill="#FBAE05"/>
<path d="M12.2343 5.86664C14.156 5.86664 15.4524 6.67775 16.1915 7.35557L19.0799 4.6C17.306 2.98889 14.9975 2 12.2343 2C8.23147 2 4.77452 4.24443 3.09155 7.51107L6.40065 10.0222C7.23085 7.61111 9.52788 5.86664 12.2343 5.86664Z" fill="#EB4335"/>
</g>
<defs>
<clipPath id="clip0_30967_5339">
<rect width="24" height="24" fill="white"/>
</clipPath>
</defs>
</svg>
