<svg width="48" height="48" viewBox="0 0 48 48" fill="none" xmlns="http://www.w3.org/2000/svg">
<path d="M0 24C0 10.7452 10.7452 0 24 0V0C37.2548 0 48 10.7452 48 24V24C48 37.2548 37.2548 48 24 48V48C10.7452 48 0 37.2548 0 24V24Z" fill="#F3F3F3"/>
<g clip-path="url(#clip0_1:176)">
<path d="M32.5798 19.822C32.5935 20.0073 32.5935 20.1927 32.5935 20.3779C32.5935 26.0294 28.1392 32.5412 19.998 32.5412C17.4899 32.5412 15.1599 31.8397 13.2 30.6221C13.5564 30.6618 13.899 30.675 14.269 30.675C16.3386 30.675 18.2437 30 19.765 28.8485C17.8188 28.8088 16.1878 27.578 15.6259 25.8838C15.9 25.9235 16.1741 25.95 16.462 25.95C16.8594 25.95 17.2569 25.897 17.6269 25.8044C15.5985 25.4073 14.0771 23.6868 14.0771 21.6088V21.5559C14.6664 21.8735 15.3518 22.0721 16.0781 22.0985C14.8857 21.3308 14.1046 20.0206 14.1046 18.5382C14.1046 17.7441 14.3238 17.0162 14.7076 16.3809C16.8868 18.975 20.1624 20.6691 23.8355 20.8544C23.767 20.5367 23.7259 20.2059 23.7259 19.875C23.7259 17.5191 25.6995 15.6 28.1528 15.6C29.4274 15.6 30.5787 16.1162 31.3873 16.95C32.3878 16.7647 33.3472 16.4073 34.197 15.9176C33.868 16.9103 33.169 17.7441 32.2508 18.2735C33.1417 18.1809 34.0051 17.9426 34.8 17.6118C34.1971 18.4588 33.4432 19.2132 32.5798 19.822V19.822Z" fill="black"/>
</g>
<defs>
<clipPath id="clip0_1:176">
<rect width="21.6" height="18" fill="white" transform="translate(13.2 15.6)"/>
</clipPath>
</defs>
</svg>
