<svg width="24" height="24" viewBox="0 0 24 24" fill="none" xmlns="http://www.w3.org/2000/svg">
<rect width="24" height="24" fill="white"/>
<path d="M5.25 3.375H19.29C19.7435 3.375 20.1785 3.55516 20.4992 3.87585C20.8198 4.19653 21 4.63148 21 5.085V18.915C21 19.1396 20.9558 19.3619 20.8698 19.5694C20.7839 19.7769 20.6579 19.9654 20.4992 20.1242C20.3404 20.2829 20.1519 20.4089 19.9444 20.4948C19.7369 20.5808 19.5146 20.625 19.29 20.625H5.25V3.375Z" fill="#ECE1C0"/>
<path d="M19.5 2.625H4.5C3.90326 2.625 3.33097 2.86205 2.90901 3.28401C2.48705 3.70597 2.25 4.27826 2.25 4.875V19.125C2.25 19.7217 2.48705 20.294 2.90901 20.716C3.33097 21.1379 3.90326 21.375 4.5 21.375H19.5C20.0967 21.375 20.669 21.1379 21.091 20.716C21.5129 20.294 21.75 19.7217 21.75 19.125V4.875C21.75 4.27826 21.5129 3.70597 21.091 3.28401C20.669 2.86205 20.0967 2.625 19.5 2.625ZM20.25 19.125C20.25 19.3239 20.171 19.5147 20.0303 19.6553C19.8897 19.796 19.6989 19.875 19.5 19.875H4.5C4.30109 19.875 4.11032 19.796 3.96967 19.6553C3.82902 19.5147 3.75 19.3239 3.75 19.125V4.875C3.75 4.67609 3.82902 4.48532 3.96967 4.34467C4.11032 4.20402 4.30109 4.125 4.5 4.125H19.5C19.6989 4.125 19.8897 4.20402 20.0303 4.34467C20.171 4.48532 20.25 4.67609 20.25 4.875V19.125Z" fill="#FF9900"/>
<path d="M16.875 10.875C17.0739 10.875 17.2647 10.796 17.4053 10.6553C17.546 10.5147 17.625 10.3239 17.625 10.125C17.625 9.92608 17.546 9.73531 17.4053 9.59466C17.2647 9.45401 17.0739 9.37499 16.875 9.37499H8.56125L9.52875 8.40374C9.65162 8.26026 9.71582 8.0757 9.70853 7.88695C9.70124 7.69819 9.62299 7.51914 9.48942 7.38556C9.35585 7.25199 9.17679 7.17374 8.98804 7.16645C8.79928 7.15916 8.61472 7.22337 8.47125 7.34624L6.22125 9.59624C6.11592 9.70087 6.04402 9.83441 6.01464 9.97994C5.98527 10.1255 5.99975 10.2764 6.05625 10.4137C6.11334 10.5506 6.20971 10.6674 6.33319 10.7495C6.45667 10.8316 6.60172 10.8753 6.75 10.875H16.875Z" fill="#FF9900"/>
<path d="M17.625 13.5H7.5C7.30109 13.5 7.11032 13.579 6.96967 13.7197C6.82902 13.8603 6.75 14.0511 6.75 14.25C6.75 14.4489 6.82902 14.6397 6.96967 14.7803C7.11032 14.921 7.30109 15 7.5 15H15.8138L14.8463 15.9713C14.7677 16.0385 14.704 16.1212 14.659 16.2143C14.6139 16.3073 14.5886 16.4087 14.5847 16.512C14.5807 16.6153 14.5981 16.7182 14.6358 16.8145C14.6735 16.9107 14.7307 16.9981 14.8038 17.0712C14.8769 17.1443 14.9643 17.2015 15.0605 17.2392C15.1568 17.2769 15.2598 17.2943 15.363 17.2904C15.4663 17.2864 15.5677 17.2611 15.6607 17.216C15.7538 17.171 15.8365 17.1073 15.9038 17.0288L18.1538 14.7788C18.2591 14.6741 18.331 14.5406 18.3604 14.395C18.3897 14.2495 18.3753 14.0985 18.3188 13.9613C18.2617 13.8244 18.1653 13.7075 18.0418 13.6254C17.9183 13.5433 17.7733 13.4997 17.625 13.5V13.5Z" fill="#FF9900"/>
</svg>
