<svg width="310" height="92" viewBox="0 0 310 92" fill="none" xmlns="http://www.w3.org/2000/svg">
<path fill-rule="evenodd" clip-rule="evenodd" d="M298.514 91.5945H11.4857C5.15546 91.5945 0 86.4323 0 80.1452V11.4493C0 5.13934 5.15546 0 11.4857 0H298.514C304.838 0 310 5.13934 310 11.4493V80.1452C310 86.4323 304.838 91.5945 298.514 91.5945Z" fill="black"/>
<path d="M56.7232 46.4905C56.7479 44.579 57.2556 42.7049 58.1991 41.0424C59.1427 39.3798 60.4915 37.983 62.12 36.9819C61.0855 35.5044 59.7207 34.2885 58.1341 33.4307C56.5474 32.5729 54.7826 32.097 52.9798 32.0406C49.1342 31.6369 45.4061 34.3418 43.4464 34.3418C41.4488 34.3418 38.4316 32.0806 35.1826 32.1475C33.081 32.2154 31.0328 32.8265 29.2377 33.9213C27.4426 35.0161 25.9616 36.5573 24.9392 38.3946C20.5101 46.0628 23.8138 57.3325 28.0564 63.5309C30.1791 66.566 32.6599 69.9564 35.9061 69.8362C39.0825 69.7045 40.2689 67.8107 44.1032 67.8107C47.9019 67.8107 49.015 69.8362 52.327 69.7598C55.7355 69.7044 57.883 66.7111 59.9313 63.6472C61.4564 61.4845 62.63 59.0943 63.4086 56.5651C61.4283 55.7275 59.7384 54.3255 58.5495 52.534C57.3608 50.7424 56.7256 48.6406 56.7232 46.4905Z" fill="#16CB3E"/>
<path d="M50.4681 27.964C52.3266 25.733 53.2422 22.8655 53.0205 19.9702C50.1811 20.2684 47.5583 21.6254 45.6748 23.7709C44.7538 24.819 44.0485 26.0383 43.5991 27.3592C43.1497 28.6801 42.965 30.0765 43.0556 31.4688C44.4758 31.4834 45.8807 31.1756 47.1647 30.5685C48.4487 29.9614 49.5781 29.071 50.4681 27.964Z" fill="#16CB3E"/>
<path d="M78.48 34H82.6C86.52 34 89.58 31.46 89.58 27C89.58 22.54 86.52 20 82.6 20H78.48V34ZM80.18 32.46V21.54H82.56C85.28 21.54 87.8 23.14 87.8 27C87.8 30.86 85.28 32.46 82.56 32.46H80.18ZM96.278 34.16C99.278 34.16 101.418 31.98 101.418 28.96C101.418 25.92 99.278 23.76 96.278 23.76C93.298 23.76 91.158 25.92 91.158 28.96C91.158 31.98 93.298 34.16 96.278 34.16ZM96.278 32.72C94.218 32.72 92.798 31.16 92.798 28.96C92.798 26.76 94.218 25.2 96.278 25.2C98.358 25.2 99.778 26.76 99.778 28.96C99.778 31.16 98.358 32.72 96.278 32.72ZM105.322 34H106.862L109.322 25.98L111.802 34H113.342L116.402 23.92H114.782L112.562 31.92L110.122 23.92H108.562L106.082 31.92L103.862 23.92H102.262L105.322 34ZM118.086 34H119.686V28.56C119.686 26.6 120.926 25.22 122.646 25.22C124.166 25.22 125.166 26.38 125.166 28.1V34H126.766V27.84C126.766 25.38 125.286 23.76 123.006 23.76C121.466 23.76 120.206 24.46 119.686 25.86V23.92H118.086V34ZM129.494 34H131.094V19.78H129.494V34ZM138.348 34.16C141.348 34.16 143.488 31.98 143.488 28.96C143.488 25.92 141.348 23.76 138.348 23.76C135.368 23.76 133.228 25.92 133.228 28.96C133.228 31.98 135.368 34.16 138.348 34.16ZM138.348 32.72C136.288 32.72 134.868 31.16 134.868 28.96C134.868 26.76 136.288 25.2 138.348 25.2C140.428 25.2 141.848 26.76 141.848 28.96C141.848 31.16 140.428 32.72 138.348 32.72ZM149.349 23.76C147.089 23.76 145.249 25.2 145.069 27.14H146.589C146.669 26.04 147.829 25.12 149.309 25.12C151.029 25.12 152.009 26.06 152.009 27.44C152.009 27.76 151.809 27.98 151.369 27.98H149.089C146.649 27.98 145.069 29.2 145.069 31.12C145.069 32.96 146.449 34.16 148.569 34.16C150.129 34.16 151.469 33.42 152.009 32.26V34H153.609V27.5C153.609 25.26 151.969 23.76 149.349 23.76ZM148.809 32.8C147.529 32.8 146.709 32.14 146.709 31.1C146.709 29.92 147.689 29.2 149.189 29.2H152.009V29.46C152.009 31.54 150.829 32.8 148.809 32.8ZM160.256 34.16C161.676 34.16 162.996 33.44 163.596 32.34V34H165.196V19.78H163.596V25.56C162.996 24.48 161.676 23.76 160.256 23.76C157.116 23.76 155.396 26.02 155.396 28.96C155.396 31.9 157.116 34.16 160.256 34.16ZM160.396 32.72C158.376 32.72 157.036 31.24 157.036 28.96C157.036 26.68 158.376 25.2 160.396 25.2C162.416 25.2 163.736 26.68 163.736 28.96C163.736 31.24 162.416 32.72 160.396 32.72ZM177.215 34.16C180.215 34.16 182.355 31.98 182.355 28.96C182.355 25.92 180.215 23.76 177.215 23.76C174.235 23.76 172.095 25.92 172.095 28.96C172.095 31.98 174.235 34.16 177.215 34.16ZM177.215 32.72C175.155 32.72 173.735 31.16 173.735 28.96C173.735 26.76 175.155 25.2 177.215 25.2C179.295 25.2 180.715 26.76 180.715 28.96C180.715 31.16 179.295 32.72 177.215 32.72ZM184.414 34H186.014V28.56C186.014 26.6 187.254 25.22 188.974 25.22C190.494 25.22 191.494 26.38 191.494 28.1V34H193.094V27.84C193.094 25.38 191.614 23.76 189.334 23.76C187.794 23.76 186.534 24.46 186.014 25.86V23.92H184.414V34ZM201.608 20.7V23.92H199.508V25.34H201.608V30.84C201.608 32.8 202.848 34 204.768 34H206.308V32.58H204.828C203.848 32.58 203.208 31.92 203.208 30.8V25.34H206.308V23.92H203.208V20.7H201.608ZM208.263 34H209.863V28.56C209.863 26.6 211.103 25.22 212.823 25.22C214.343 25.22 215.343 26.38 215.343 28.1V34H216.943V27.84C216.943 25.38 215.463 23.76 213.183 23.76C211.643 23.76 210.383 24.46 209.863 25.86V19.78H208.263V34ZM226.99 30.76C226.67 32.02 225.63 32.74 223.99 32.74C222.09 32.74 220.71 31.26 220.59 29.18H228.47C228.49 29.04 228.51 28.7 228.51 28.48C228.51 25.8 226.75 23.76 223.81 23.76C220.85 23.76 219.01 25.94 219.01 28.9C219.01 31.78 221.01 34.16 223.99 34.16C226.49 34.16 228.27 32.82 228.61 30.76H226.99ZM223.81 25.12C225.61 25.12 226.75 26.2 226.87 27.9H220.67C220.97 26.12 222.11 25.12 223.81 25.12Z" fill="white"/>
<path d="M98.28 69H103.76L92.96 41H88L77.24 69H82.68L85.08 62.48H95.88L98.28 69ZM86.76 58L90.52 47.76L94.28 58H86.76ZM106.472 77.16H111.352V66.8C112.472 68.36 114.632 69.32 117.072 69.32C122.992 69.32 126.792 65.08 126.792 58.92C126.792 52.76 123.232 48.52 117.432 48.52C114.752 48.52 112.552 49.64 111.352 51.36V48.84H106.472V77.16ZM116.512 65.08C113.192 65.08 111.032 62.64 111.032 58.92C111.032 55.2 113.192 52.76 116.512 52.76C119.752 52.76 121.912 55.2 121.912 58.92C121.912 62.64 119.752 65.08 116.512 65.08ZM130.378 77.16H135.258V66.8C136.378 68.36 138.538 69.32 140.978 69.32C146.898 69.32 150.698 65.08 150.698 58.92C150.698 52.76 147.138 48.52 141.338 48.52C138.658 48.52 136.458 49.64 135.258 51.36V48.84H130.378V77.16ZM140.418 65.08C137.098 65.08 134.938 62.64 134.938 58.92C134.938 55.2 137.098 52.76 140.418 52.76C143.658 52.76 145.818 55.2 145.818 58.92C145.818 62.64 143.658 65.08 140.418 65.08ZM172.435 69.32C178.595 69.32 182.875 66.16 182.875 60.96C182.875 50.04 167.635 54.68 167.635 48.48C167.635 46.52 169.355 45.24 172.115 45.24C175.075 45.24 176.995 46.88 177.235 49.32H182.275C182.035 44.08 178.035 40.68 172.115 40.68C166.435 40.68 162.475 43.88 162.475 48.48C162.475 59.2 177.515 55.04 177.515 61.04C177.515 63.52 175.435 64.72 172.435 64.72C169.075 64.72 166.995 62.72 166.715 59.6H161.635C161.915 65.48 166.075 69.32 172.435 69.32ZM188.555 42.76V48.84H184.595V52.96H188.555V61.96C188.555 66.44 191.435 69 195.835 69H199.075V64.84H196.395C194.555 64.84 193.475 63.8 193.475 61.76V52.96H199.075V48.84H193.475V42.76H188.555ZM211.297 69.32C217.417 69.32 221.817 64.92 221.817 58.92C221.817 52.92 217.417 48.52 211.297 48.52C205.137 48.52 200.737 52.92 200.737 58.92C200.737 64.92 205.137 69.32 211.297 69.32ZM211.297 65.08C207.937 65.08 205.697 62.56 205.697 58.92C205.697 55.28 207.937 52.76 211.297 52.76C214.617 52.76 216.857 55.28 216.857 58.92C216.857 62.56 214.617 65.08 211.297 65.08ZM237.578 52.96V48.84H235.218C232.618 48.84 231.058 49.84 230.058 52.4V48.84H225.138V69H230.058V59.48C230.058 55.64 231.298 52.96 234.418 52.96H237.578ZM253.549 62.28C253.029 64.2 251.389 65.24 248.869 65.24C245.749 65.24 243.669 63.16 243.309 59.92H258.189C258.229 59.52 258.269 58.92 258.269 58.24C258.269 53.44 255.229 48.52 248.469 48.52C241.869 48.52 238.589 53.52 238.589 58.84C238.589 64.12 242.269 69.32 248.869 69.32C253.829 69.32 257.589 66.56 258.349 62.28H253.549ZM248.469 52.2C251.389 52.2 253.149 54.12 253.349 56.68H243.429C243.949 53.64 245.709 52.2 248.469 52.2Z" fill="white"/>
</svg>
