<svg width="310" height="92" viewBox="0 0 310 92" fill="none" xmlns="http://www.w3.org/2000/svg">
<path fill-rule="evenodd" clip-rule="evenodd" d="M298.514 91.5945H11.4857C5.15546 91.5945 0 86.4323 0 80.1452V11.4493C0 5.13934 5.15546 0 11.4857 0H298.514C304.838 0 310 5.13934 310 11.4493V80.1452C310 86.4323 304.838 91.5945 298.514 91.5945Z" fill="black"/>
<path fill-rule="evenodd" clip-rule="evenodd" d="M22.861 17.2509C22.1995 17.9647 21.8174 19.0554 21.8174 20.4829V71.1169C21.8174 72.5445 22.1995 73.6351 22.8838 74.3203L23.0606 74.4745L51.3927 46.1054V45.4716L23.0378 17.0967L22.861 17.2509Z" fill="#16CB3E"/>
<path fill-rule="evenodd" clip-rule="evenodd" d="M62.8199 55.5906L53.3701 46.1285V45.466L62.8199 36.0039L63.0253 36.1296L74.203 42.4909C77.4024 44.2954 77.4024 47.2762 74.203 49.1036L63.0253 55.4649L62.8199 55.5906Z" fill="#16CB3E"/>
<path fill-rule="evenodd" clip-rule="evenodd" d="M62.0254 56.4645L52.3704 46.7969L23.8613 75.343C24.905 76.4623 26.6559 76.5879 28.612 75.4972L62.0254 56.4645Z" fill="#16CB3E"/>
<path fill-rule="evenodd" clip-rule="evenodd" d="M62.0254 35.1299L28.612 16.1256C26.6559 15.0065 24.8993 15.1606 23.8613 16.2798L52.3704 44.7975L62.0254 35.1299Z" fill="#16CB3E"/>
<path d="M93.56 34.16C95.62 34.16 97.36 33.1 98.02 31.56V34H99.6V29.2C99.6 27.6 98.14 26.8 97.12 26.8H93.66V28.28H96.82C97.5 28.28 97.92 28.7 97.92 29.34C97.92 31.36 95.88 32.66 93.58 32.66C90.7 32.66 88.58 30.62 88.58 27C88.58 23.36 90.7 21.38 93.58 21.38C95.74 21.38 97.5 22.64 97.82 24.42H99.62C99.3 21.74 96.8 19.84 93.6 19.84C90.12 19.84 86.84 22.22 86.84 27C86.84 31.78 90.1 34.16 93.56 34.16ZM109.329 30.76C109.009 32.02 107.969 32.74 106.329 32.74C104.429 32.74 103.049 31.26 102.929 29.18H110.809C110.829 29.04 110.849 28.7 110.849 28.48C110.849 25.8 109.089 23.76 106.149 23.76C103.189 23.76 101.349 25.94 101.349 28.9C101.349 31.78 103.349 34.16 106.329 34.16C108.829 34.16 110.609 32.82 110.949 30.76H109.329ZM106.149 25.12C107.949 25.12 109.089 26.2 109.209 27.9H103.009C103.309 26.12 104.449 25.12 106.149 25.12ZM113.986 20.7V23.92H111.886V25.34H113.986V30.84C113.986 32.8 115.226 34 117.146 34H118.686V32.58H117.206C116.226 32.58 115.586 31.92 115.586 30.8V25.34H118.686V23.92H115.586V20.7H113.986ZM125.071 19.78V22.02H126.911V19.78H125.071ZM125.191 34H126.791V23.92H125.191V34ZM130.529 20.7V23.92H128.429V25.34H130.529V30.84C130.529 32.8 131.769 34 133.689 34H135.229V32.58H133.749C132.769 32.58 132.129 31.92 132.129 30.8V25.34H135.229V23.92H132.129V20.7H130.529ZM146.274 34.16C149.274 34.16 151.414 31.98 151.414 28.96C151.414 25.92 149.274 23.76 146.274 23.76C143.294 23.76 141.154 25.92 141.154 28.96C141.154 31.98 143.294 34.16 146.274 34.16ZM146.274 32.72C144.214 32.72 142.794 31.16 142.794 28.96C142.794 26.76 144.214 25.2 146.274 25.2C148.354 25.2 149.774 26.76 149.774 28.96C149.774 31.16 148.354 32.72 146.274 32.72ZM153.472 34H155.072V28.56C155.072 26.6 156.312 25.22 158.032 25.22C159.552 25.22 160.552 26.38 160.552 28.1V34H162.152V27.84C162.152 25.38 160.672 23.76 158.392 23.76C156.852 23.76 155.592 24.46 155.072 25.86V23.92H153.472V34Z" fill="white"/>
<path d="M99.608 68.288C102.992 68.288 105.764 66.56 106.7 64.004V68H110.948V58.604C110.948 56.192 108.968 54.464 106.772 54.464H100.076V58.1H105.188C105.98 58.1 106.484 58.604 106.484 59.396C106.484 62.096 103.208 64.364 99.788 64.364C95.324 64.364 91.868 60.98 91.868 55.4C91.868 49.82 95.324 46.616 99.86 46.616C103.316 46.616 105.8 48.524 106.232 51.368H111.02C110.624 46.148 106.088 42.512 99.896 42.512C93.344 42.512 87.296 46.796 87.296 55.4C87.296 64.004 93.236 68.288 99.608 68.288ZM123.196 68.288C128.704 68.288 132.664 64.328 132.664 58.928C132.664 53.528 128.704 49.568 123.196 49.568C117.652 49.568 113.692 53.528 113.692 58.928C113.692 64.328 117.652 68.288 123.196 68.288ZM123.196 64.472C120.172 64.472 118.156 62.204 118.156 58.928C118.156 55.652 120.172 53.384 123.196 53.384C126.184 53.384 128.2 55.652 128.2 58.928C128.2 62.204 126.184 64.472 123.196 64.472ZM144.184 68.288C149.692 68.288 153.652 64.328 153.652 58.928C153.652 53.528 149.692 49.568 144.184 49.568C138.64 49.568 134.68 53.528 134.68 58.928C134.68 64.328 138.64 68.288 144.184 68.288ZM144.184 64.472C141.16 64.472 139.144 62.204 139.144 58.928C139.144 55.652 141.16 53.384 144.184 53.384C147.172 53.384 149.188 55.652 149.188 58.928C149.188 62.204 147.172 64.472 144.184 64.472ZM169.78 49.856V51.908C168.736 50.504 166.756 49.568 164.488 49.568C159.088 49.568 155.92 53.384 155.92 58.928C155.92 64.472 159.088 68.288 164.56 68.288C166.828 68.288 168.916 67.388 169.816 65.984V68.576C169.816 70.484 168.556 71.816 166.792 71.816H158.44V75.344H167.404C171.472 75.344 174.208 72.788 174.208 69.008V49.856H169.78ZM165.172 64.472C162.22 64.472 160.312 62.276 160.312 58.928C160.312 55.58 162.22 53.384 165.172 53.384C168.16 53.384 170.104 55.58 170.104 58.928C170.104 62.276 168.16 64.472 165.172 64.472ZM178.689 68H183.081V42.08H178.689V68ZM199.788 61.952C199.32 63.68 197.844 64.616 195.576 64.616C192.768 64.616 190.896 62.744 190.572 59.828H203.964C204 59.468 204.036 58.928 204.036 58.316C204.036 53.996 201.3 49.568 195.216 49.568C189.276 49.568 186.324 54.068 186.324 58.856C186.324 63.608 189.636 68.288 195.576 68.288C200.04 68.288 203.424 65.804 204.108 61.952H199.788ZM195.216 52.88C197.844 52.88 199.428 54.608 199.608 56.912H190.68C191.148 54.176 192.732 52.88 195.216 52.88ZM215.396 68H220.184V58.424H225.512C230.768 58.424 233.9 55.184 233.9 50.612C233.9 46.04 230.768 42.8 225.512 42.8H215.396V68ZM220.184 54.428V46.796H225.296C228.104 46.796 229.256 48.596 229.256 50.612C229.256 52.628 228.104 54.428 225.296 54.428H220.184ZM236.802 68H241.194V42.08H236.802V68ZM252.649 49.568C247.933 49.568 244.873 52.376 244.657 55.976H248.617C248.689 54.356 250.093 52.88 252.433 52.88C254.773 52.88 256.141 54.14 256.141 55.904C256.141 56.624 255.709 57.128 254.809 57.128H251.461C247.393 57.128 244.657 59.324 244.657 62.852C244.657 65.984 247.105 68.288 250.705 68.288C253.297 68.288 255.385 67.1 256.141 65.3V68H260.497V56.336C260.497 52.232 257.257 49.568 252.649 49.568ZM251.749 65.012C250.093 65.012 248.941 64.076 248.941 62.672C248.941 61.088 250.201 60.044 252.073 60.044H256.141V60.332C256.141 63.068 254.521 65.012 251.749 65.012ZM279.142 49.856H274.606L270.43 62.312L266.218 49.856H261.718L268.342 68L265.786 75.344H269.998L272.806 67.136L279.142 49.856Z" fill="white"/>
</svg>
