<svg width="48" height="48" viewBox="0 0 48 48" fill="none" xmlns="http://www.w3.org/2000/svg">
<path d="M0 24C0 10.7452 10.7452 0 24 0V0C37.2548 0 48 10.7452 48 24V24C48 37.2548 37.2548 48 24 48V48C10.7452 48 0 37.2548 0 24V24Z" fill="#F3F3F3"/>
<g clip-path="url(#clip0_1:178)">
<path d="M29.3613 26.025L30.0012 21.8987H26.0003V19.2211C26.0003 18.0922 26.5592 16.9918 28.3511 16.9918H30.17V13.4788C30.17 13.4788 28.5194 13.2 26.9412 13.2C23.6463 13.2 21.4926 15.1763 21.4926 18.7539V21.8987H17.8301V26.025H21.4926V36H26.0003V26.025H29.3613Z" fill="black"/>
</g>
<defs>
<clipPath id="clip0_1:178">
<rect width="14.4" height="22.8" fill="white" transform="translate(16.8 13.2)"/>
</clipPath>
</defs>
</svg>
