<svg width="48" height="48" viewBox="0 0 48 48" fill="none" xmlns="http://www.w3.org/2000/svg">
<path d="M0 24C0 10.7452 10.7452 0 24 0V0C37.2548 0 48 10.7452 48 24V24C48 37.2548 37.2548 48 24 48V48C10.7452 48 0 37.2548 0 24V24Z" fill="#F3F3F3"/>
<g clip-path="url(#clip0_1:170)">
<path d="M24.0043 19.1484C21.2786 19.1484 19.08 21.3127 19.08 23.9958C19.08 26.6789 21.2786 28.8431 24.0043 28.8431C26.73 28.8431 28.9286 26.6789 28.9286 23.9958C28.9286 21.3127 26.73 19.1484 24.0043 19.1484ZM24.0043 27.1472C22.2429 27.1472 20.8029 25.7339 20.8029 23.9958C20.8029 22.2577 22.2386 20.8444 24.0043 20.8444C25.77 20.8444 27.2057 22.2577 27.2057 23.9958C27.2057 25.7339 25.7657 27.1472 24.0043 27.1472V27.1472ZM30.2786 18.9502C30.2786 19.5788 29.7643 20.0808 29.13 20.0808C28.4914 20.0808 27.9814 19.5745 27.9814 18.9502C27.9814 18.3258 28.4957 17.8195 29.13 17.8195C29.7643 17.8195 30.2786 18.3258 30.2786 18.9502ZM33.54 20.0977C33.4672 18.5831 33.1157 17.2416 31.9886 16.1363C30.8657 15.0309 29.5029 14.685 27.9643 14.6091C26.3786 14.5205 21.6257 14.5205 20.04 14.6091C18.5057 14.6808 17.1429 15.0267 16.0157 16.132C14.8886 17.2373 14.5414 18.5789 14.4643 20.0934C14.3743 21.6544 14.3743 26.333 14.4643 27.8939C14.5371 29.4084 14.8886 30.75 16.0157 31.8553C17.1429 32.9606 18.5014 33.3066 20.04 33.3825C21.6257 33.4711 26.3786 33.4711 27.9643 33.3825C29.5029 33.3108 30.8657 32.9648 31.9886 31.8553C33.1114 30.75 33.4629 29.4084 33.54 27.8939C33.63 26.333 33.63 21.6586 33.54 20.0977V20.0977ZM31.4914 29.5688C31.1572 30.3956 30.51 31.0327 29.6657 31.3659C28.4014 31.8595 25.4014 31.7456 24.0043 31.7456C22.6071 31.7456 19.6029 31.8553 18.3429 31.3659C17.5029 31.0369 16.8557 30.3998 16.5171 29.5688C16.0157 28.3242 16.1314 25.3711 16.1314 23.9958C16.1314 22.6205 16.02 19.6631 16.5171 18.4228C16.8514 17.5959 17.4986 16.9589 18.3429 16.6256C19.6071 16.132 22.6071 16.2459 24.0043 16.2459C25.4014 16.2459 28.4057 16.1363 29.6657 16.6256C30.5057 16.9547 31.1529 17.5917 31.4914 18.4228C31.9929 19.6673 31.8772 22.6205 31.8772 23.9958C31.8772 25.3711 31.9929 28.3284 31.4914 29.5688Z" fill="black"/>
</g>
<defs>
<clipPath id="clip0_1:170">
<rect width="19.2" height="21.6" fill="white" transform="translate(14.4 13.2)"/>
</clipPath>
</defs>
</svg>
