<svg width="48" height="48" viewBox="0 0 48 48" fill="none" xmlns="http://www.w3.org/2000/svg">
<circle cx="24" cy="24" r="24" fill="white"/>
<path d="M11.0236 22.7617L24.8553 17.0628C26.2206 16.4691 30.851 14.5695 30.851 14.5695C30.851 14.5695 32.9881 13.7384 32.81 15.7568C32.7506 16.5879 32.2757 19.4967 31.8008 22.6429L30.3167 31.963C30.3167 31.963 30.198 33.3284 29.1888 33.5658C28.1796 33.8033 26.5174 32.7347 26.2206 32.4973C25.9832 32.3192 21.7684 29.6478 20.2249 28.3418C19.8094 27.9856 19.3345 27.2733 20.2843 26.4422C22.4214 24.4832 24.974 22.0493 26.5174 20.5058C27.2298 19.7935 27.9422 18.1313 24.974 20.1497L16.6038 25.7892C16.6038 25.7892 15.6539 26.3828 13.873 25.8486C12.0921 25.3143 10.0144 24.6019 10.0144 24.6019C10.0144 24.6019 8.5897 23.7115 11.0236 22.7617Z" fill="black"/>
</svg>
