<svg width="26" height="26" viewBox="0 0 26 26" fill="none" xmlns="http://www.w3.org/2000/svg">
<g clip-path="url(#clip0_184:3652)">
<circle opacity="0.2" cx="13" cy="13" r="13" fill="white"/>
<path d="M25.2761 17.2767C25.7442 15.9367 25.9996 14.4977 25.9996 12.9999C25.9996 11.5022 25.7442 10.0631 25.2761 8.72315C25.2647 8.6829 25.2511 8.64364 25.2347 8.60587C23.4291 3.59362 18.6265 0 12.9998 0C7.37309 0 2.57042 3.59362 0.764914 8.60587C0.748515 8.64377 0.734849 8.6829 0.723544 8.72315C0.255427 10.0631 0 11.5022 0 12.9999C0 14.4977 0.255427 15.9367 0.723544 17.2767C0.734974 17.317 0.748515 17.3562 0.764914 17.394C2.57054 22.4064 7.37309 25.9999 12.9998 25.9999C18.6265 25.9999 23.4291 22.4063 25.2347 17.394C25.2511 17.3562 25.2647 17.3171 25.2761 17.2767ZM12.9998 24.1365C12.5047 24.1365 11.7065 23.2405 11.0394 21.2388C10.7174 20.2729 10.4596 19.1625 10.2717 17.9545H15.7279C15.54 19.1625 15.2823 20.2728 14.9604 21.2388C14.2931 23.2405 13.4949 24.1365 12.9998 24.1365ZM10.0456 16.091C9.95606 15.0974 9.90873 14.0608 9.90873 12.9999C9.90873 11.9391 9.95606 10.9025 10.0456 9.90885H15.9539C16.0434 10.9025 16.0908 11.9391 16.0908 12.9999C16.0908 14.0608 16.0434 15.0974 15.9539 16.091H10.0456ZM1.8634 13.0001C1.8634 11.9279 2.01608 10.8908 2.30021 9.90897H8.17652C8.08943 10.9231 8.0452 11.9625 8.0452 13.0001C8.0452 14.0377 8.08931 15.077 8.17652 16.0911H2.30021C2.01608 15.1092 1.8634 14.0722 1.8634 13.0001ZM12.9998 1.86352C13.4949 1.86352 14.2932 2.75951 14.9604 4.76118C15.2823 5.7271 15.5402 6.83751 15.7279 8.04533H10.2716C10.4595 6.83739 10.7172 5.7271 11.0393 4.76118C11.7065 2.75951 12.5047 1.86352 12.9998 1.86352ZM17.823 9.90897H23.6993C23.9834 10.8908 24.1361 11.9279 24.1361 13.0001C24.1361 14.0722 23.9834 15.1093 23.6993 16.0911H17.823C17.9101 15.077 17.9543 14.0377 17.9543 13.0001C17.9543 11.9625 17.9101 10.9231 17.823 9.90897ZM22.9712 8.04545H17.6092C17.2777 5.7599 16.7091 3.7094 15.9114 2.25064C19.0042 3.0891 21.5666 5.22979 22.9712 8.04545ZM10.0881 2.25051C9.29041 3.70928 8.72179 5.75978 8.39033 8.04545H3.02835C4.43307 5.22979 6.99529 3.0891 10.0881 2.25051ZM3.02835 17.9545H8.39033C8.72179 20.2401 9.29041 22.2906 10.0881 23.7495C6.99529 22.9109 4.43307 20.7703 3.02835 17.9545ZM15.9114 23.7495C16.7091 22.2907 17.2777 20.2402 17.6092 17.9545H22.9712C21.5666 20.7703 19.0042 22.9109 15.9114 23.7495Z" fill="white"/>
</g>
<defs>
<clipPath id="clip0_184:3652">
<rect width="26" height="26" fill="white"/>
</clipPath>
</defs>
</svg>
