<svg width="26" height="26" viewBox="0 0 26 26" fill="none" xmlns="http://www.w3.org/2000/svg">
<path opacity="0.2" d="M23.2684 5.96697L13.4431 0.121799C13.1701 -0.0405996 12.83 -0.0405996 12.5569 0.121799L2.73161 5.96697C2.46902 6.12323 2.30804 6.40628 2.30804 6.71183V10.0485C2.30804 17.0763 6.36851 23.4952 12.6871 25.9415C12.8882 26.0194 13.1116 26.0195 13.3129 25.9415C19.6161 23.5013 23.6919 17.0963 23.6919 10.0485V6.71183C23.6919 6.40623 23.531 6.12323 23.2684 5.96697ZM17.2817 11.0525L11.5 15C11.1615 15.3385 11.5755 14.9844 11.237 14.6459L9.94356 14C9.60511 13.6616 9.66154 13.8385 10 13.5C10.3385 13.1616 9.60516 13.014 9.94356 13.3524L11.237 14.6459L16.0561 9.82686C16.3945 9.48845 16.9433 9.48845 17.2817 9.82686C17.6202 10.1654 17.6202 10.7141 17.2817 11.0525Z" fill="white"/>
<path d="M23.3426 4.21006L13.3894 0.0776382C13.1401 -0.025854 12.8598 -0.0259048 12.6106 0.0776382L2.65743 4.21006C2.27835 4.36749 2.03125 4.73758 2.03125 5.14804V10.1716C2.03125 17.0886 6.21202 23.3107 12.6162 25.9247C12.8622 26.0251 13.1378 26.0251 13.3838 25.9247C19.7879 23.3108 23.9688 17.0887 23.9688 10.1716V5.14804C23.9688 4.73758 23.7217 4.36749 23.3426 4.21006V4.21006ZM21.9375 10.1716C21.9375 16.0518 18.4844 21.4649 13 23.8812C7.66218 21.5295 4.0625 16.2111 4.0625 10.1716V5.82608L13 2.11529L21.9375 5.82608V10.1716ZM11.8774 13.5949L16.2428 9.22964C16.6394 8.83304 17.2824 8.83299 17.6791 9.22964C18.0757 9.62629 18.0757 10.2693 17.679 10.6659L12.5956 15.7494C12.1989 16.1461 11.5558 16.1459 11.1593 15.7494L8.32091 12.911C7.92426 12.5144 7.92426 11.8713 8.32091 11.4747C8.71757 11.0781 9.36061 11.0781 9.75721 11.4747L11.8774 13.5949Z" fill="white"/>
</svg>
