<svg width="48" height="48" viewBox="0 0 48 48" fill="none" xmlns="http://www.w3.org/2000/svg">
<path d="M0 24C0 10.7452 10.7452 0 24 0C37.2548 0 48 10.7452 48 24C48 37.2548 37.2548 48 24 48C10.7452 48 0 37.2548 0 24Z" fill="#F3F3F3"/>
<path d="M36.6236 17.1303C36.4819 15.948 35.3677 14.8143 34.202 14.6624C27.0935 13.7792 19.9052 13.7792 12.799 14.6624C11.6323 14.814 10.5181 15.948 10.3764 17.1303C9.87454 21.4632 9.87454 25.6644 10.3764 29.9964C10.5181 31.1786 11.6323 32.3134 12.799 32.4642C19.9052 33.3474 27.0937 33.3474 34.202 32.4642C35.3677 32.3136 36.4819 31.1786 36.6236 29.9964C37.1255 25.6648 37.1255 21.4632 36.6236 17.1303ZM21.2498 28.0642V19.0639L28 23.5642L21.2498 28.0642Z" fill="black"/>
</svg>
