<svg width="48" height="48" viewBox="0 0 48 48" fill="none" xmlns="http://www.w3.org/2000/svg">
<path opacity="0.2" d="M24 42C33.9411 42 42 33.9411 42 24C42 14.0589 33.9411 6 24 6C14.0589 6 6 14.0589 6 24C6 33.9411 14.0589 42 24 42Z" fill="#289442"/>
<path d="M24 42C33.9411 42 42 33.9411 42 24C42 14.0589 33.9411 6 24 6C14.0589 6 6 14.0589 6 24C6 33.9411 14.0589 42 24 42Z" stroke="#289442" stroke-width="3" stroke-miterlimit="10"/>
<path d="M31.7969 28.4993C31.0062 29.8669 29.8695 31.0025 28.5012 31.792C27.1328 32.5815 25.5808 32.9971 24.001 32.9971C22.4212 32.9971 20.8692 32.5815 19.5008 31.7921C18.1324 31.0026 16.9958 29.867 16.2051 28.4994" stroke="#289442" stroke-width="3" stroke-linecap="round" stroke-linejoin="round"/>
<path d="M17.25 22.5C18.4926 22.5 19.5 21.4926 19.5 20.25C19.5 19.0074 18.4926 18 17.25 18C16.0074 18 15 19.0074 15 20.25C15 21.4926 16.0074 22.5 17.25 22.5Z" fill="#289442"/>
<path d="M30.75 22.5C31.9926 22.5 33 21.4926 33 20.25C33 19.0074 31.9926 18 30.75 18C29.5074 18 28.5 19.0074 28.5 20.25C28.5 21.4926 29.5074 22.5 30.75 22.5Z" fill="#289442"/>
</svg>
