<svg width="48" height="48" viewBox="0 0 48 48" fill="none" xmlns="http://www.w3.org/2000/svg">
<path opacity="0.2" d="M24 31.4988C31.4558 31.4988 37.5 25.4546 37.5 17.9988C37.5 10.5429 31.4558 4.49878 24 4.49878C16.5442 4.49878 10.5 10.5429 10.5 17.9988C10.5 25.4546 16.5442 31.4988 24 31.4988Z" fill="#289442"/>
<path d="M24 31.4988C31.4558 31.4988 37.5 25.4546 37.5 17.9988C37.5 10.5429 31.4558 4.49878 24 4.49878C16.5442 4.49878 10.5 10.5429 10.5 17.9988C10.5 25.4546 16.5442 31.4988 24 31.4988Z" stroke="#289442" stroke-width="3" stroke-linecap="round" stroke-linejoin="round"/>
<path d="M37.7886 31.7874C34.1316 35.4443 29.1717 37.4988 24 37.4988C18.8283 37.4988 13.8684 35.4443 10.2114 31.7874C6.55446 28.1304 4.5 23.1705 4.5 17.9988C4.5 12.8271 6.55446 7.86716 10.2114 4.21021" stroke="#289442" stroke-width="3" stroke-linecap="round" stroke-linejoin="round"/>
<path d="M18 43.4988H30" stroke="#289442" stroke-width="3" stroke-linecap="round" stroke-linejoin="round"/>
<path d="M24 37.4988V43.4988" stroke="#289442" stroke-width="3" stroke-linecap="round" stroke-linejoin="round"/>
</svg>
