<svg width="48" height="48" viewBox="0 0 48 48" fill="none" xmlns="http://www.w3.org/2000/svg">
<path opacity="0.2" d="M7.5 33V13.5C7.5 12.7044 7.81607 11.9413 8.37868 11.3787C8.94129 10.8161 9.70435 10.5 10.5 10.5H37.5C38.2956 10.5 39.0587 10.8161 39.6213 11.3787C40.1839 11.9413 40.5 12.7044 40.5 13.5V33H7.5Z" fill="#289442"/>
<path d="M7.5 33V13.5C7.5 12.7044 7.81607 11.9413 8.37868 11.3787C8.94129 10.8161 9.70435 10.5 10.5 10.5H37.5C38.2956 10.5 39.0587 10.8161 39.6213 11.3787C40.1839 11.9413 40.5 12.7044 40.5 13.5V33" stroke="#289442" stroke-width="3" stroke-linecap="round" stroke-linejoin="round"/>
<path d="M4.5 33H43.5V36C43.5 36.7956 43.1839 37.5587 42.6213 38.1213C42.0587 38.6839 41.2956 39 40.5 39H7.5C6.70435 39 5.94129 38.6839 5.37868 38.1213C4.81607 37.5587 4.5 36.7956 4.5 36V33Z" stroke="#289442" stroke-width="3" stroke-linecap="round" stroke-linejoin="round"/>
<path d="M27 16.5H21" stroke="#289442" stroke-width="3" stroke-linecap="round" stroke-linejoin="round"/>
</svg>
