<svg width="48" height="48" viewBox="0 0 48 48" fill="none" xmlns="http://www.w3.org/2000/svg">
<path opacity="0.2" d="M27.9375 29.9687L32.2534 29.9514C33.6769 29.9501 35.0828 29.6375 36.3726 29.0354C37.6624 28.4333 38.8049 27.5564 39.7199 26.466C40.635 25.3757 41.3004 24.0984 41.6695 22.7237C42.0387 21.3489 42.1027 19.9101 41.8569 18.5081L41.8553 18.5083L44.9211 34.3377C45.1149 35.4372 44.9532 36.57 44.4593 37.5713C43.9655 38.5727 43.1652 39.3906 42.1749 39.9061C41.1845 40.4217 40.0556 40.6081 38.952 40.4383C37.8485 40.2685 36.8278 39.7514 36.0382 38.9619L36.0386 38.9616L27.9375 29.9687Z" fill="#289442"/>
<path d="M28.5 20.25H34.5" stroke="#289442" stroke-width="3" stroke-linecap="round" stroke-linejoin="round"/>
<path d="M13.5 20.25H19.5" stroke="#289442" stroke-width="3" stroke-linecap="round" stroke-linejoin="round"/>
<path d="M16.5 17.25V23.25" stroke="#289442" stroke-width="3" stroke-linecap="round" stroke-linejoin="round"/>
<path d="M32.2545 10.4512L15.7519 10.5C13.4595 10.5001 11.2405 11.3078 9.48433 12.7811C7.72816 14.2544 6.54706 16.2992 6.14839 18.5566L6.14998 18.5569L3.08166 34.3374C2.88785 35.437 3.04963 36.5697 3.54348 37.5711C4.03733 38.5725 4.83755 39.3903 5.82791 39.9059C6.81827 40.4214 7.9472 40.6079 9.05073 40.4381C10.1543 40.2683 11.1749 39.7511 11.9645 38.9617L11.9642 38.9614L20.0709 30L32.2545 29.9512C34.8403 29.9512 37.3203 28.9239 39.1487 27.0955C40.9772 25.267 42.0045 22.787 42.0045 20.2012C42.0045 17.6153 40.9772 15.1354 39.1487 13.3069C37.3203 11.4784 34.8403 10.4512 32.2545 10.4512Z" stroke="#289442" stroke-width="3" stroke-linecap="round" stroke-linejoin="round"/>
<path d="M41.8553 18.5083L44.9211 34.3376C45.1149 35.4372 44.9532 36.5699 44.4593 37.5713C43.9655 38.5727 43.1652 39.3905 42.1749 39.9061C41.1845 40.4217 40.0556 40.6081 38.952 40.4383C37.8485 40.2685 36.8278 39.7513 36.0382 38.9619L36.0386 38.9616L27.9375 29.9687" stroke="#289442" stroke-width="3" stroke-linecap="round" stroke-linejoin="round"/>
</svg>
