<svg width="48" height="48" viewBox="0 0 48 48" fill="none" xmlns="http://www.w3.org/2000/svg">
<path opacity="0.2" d="M24 40.5C24 40.5 5.25 30 5.25 17.25C5.25038 14.9965 6.03122 12.8127 7.45977 11.0699C8.88832 9.32701 10.8764 8.13272 13.086 7.69003C15.2956 7.24734 17.5903 7.58358 19.58 8.64158C21.5697 9.69958 23.1315 11.414 24 13.4935C24.8685 11.414 26.4303 9.69959 28.42 8.64158C30.4097 7.58358 32.7044 7.24734 34.914 7.69003C37.1236 8.13272 39.1117 9.32701 40.5402 11.0699C41.9688 12.8127 42.7496 14.9965 42.75 17.25C42.75 30 24 40.5 24 40.5Z" fill="#289442"/>
<path d="M6 24H13.5L16.5 19.5L22.5 28.5L25.5 24H30" stroke="#289442" stroke-width="3" stroke-linecap="round" stroke-linejoin="round"/>
<path d="M5.27143 17.9988C5.25724 17.7501 5.2501 17.5005 5.25 17.25C5.25038 14.9965 6.03122 12.8127 7.45977 11.0699C8.88832 9.32701 10.8764 8.13272 13.086 7.69003C15.2956 7.24734 17.5903 7.58358 19.58 8.64158C21.5697 9.69958 23.1315 11.414 24 13.4935C24.8685 11.414 26.4303 9.69959 28.42 8.64158C30.4097 7.58358 32.7044 7.24734 34.914 7.69003C37.1236 8.13272 39.1117 9.32701 40.5402 11.0699C41.9688 12.8127 42.7496 14.9965 42.75 17.25C42.75 30 24 40.5 24 40.5C24 40.5 16.5104 36.3058 10.9983 30.0002" stroke="#289442" stroke-width="3" stroke-linecap="round" stroke-linejoin="round"/>
</svg>
