<svg width="48" height="48" viewBox="0 0 48 48" fill="none" xmlns="http://www.w3.org/2000/svg">
<path opacity="0.2" d="M24 42C33.9411 42 42 33.9411 42 24C42 14.0589 33.9411 6 24 6C14.0589 6 6 14.0589 6 24C6 33.9411 14.0589 42 24 42Z" fill="#289442"/>
<path d="M24 13.5V16.5" stroke="#289442" stroke-width="3" stroke-linecap="round" stroke-linejoin="round"/>
<path d="M24 31.5V34.5" stroke="#289442" stroke-width="3" stroke-linecap="round" stroke-linejoin="round"/>
<path d="M24 42C33.9411 42 42 33.9411 42 24C42 14.0589 33.9411 6 24 6C14.0589 6 6 14.0589 6 24C6 33.9411 14.0589 42 24 42Z" stroke="#289442" stroke-width="3" stroke-linecap="round" stroke-linejoin="round"/>
<path d="M19.5 31.5H26.25C27.2446 31.5 28.1984 31.1049 28.9017 30.4017C29.6049 29.6984 30 28.7446 30 27.75C30 26.7554 29.6049 25.8016 28.9017 25.0983C28.1984 24.3951 27.2446 24 26.25 24H21.75C20.7554 24 19.8016 23.6049 19.0983 22.9017C18.3951 22.1984 18 21.2446 18 20.25C18 19.2554 18.3951 18.3016 19.0983 17.5983C19.8016 16.8951 20.7554 16.5 21.75 16.5H28.5" stroke="#289442" stroke-width="3" stroke-linecap="round" stroke-linejoin="round"/>
</svg>
